<svg width="38" height="20" viewBox="0 0 38 20" fill="none" xmlns="http://www.w3.org/2000/svg">
<path d="M4.00008 16.3333H34.0001C34.9167 16.3333 35.6667 17.0833 35.6667 18C35.6667 18.9166 34.9167 19.6666 34.0001 19.6666H4.00008C3.08341 19.6666 2.33341 18.9166 2.33341 18C2.33341 17.0833 3.08341 16.3333 4.00008 16.3333ZM3.16675 8.94995C3.76675 9.29995 4.53341 9.08328 4.88341 8.48328L5.66675 7.11662L6.46675 8.49995C6.81675 9.09995 7.58341 9.29995 8.18341 8.96662C8.78341 8.61662 8.98341 7.86662 8.65008 7.26662L7.83341 5.86662H9.41675C10.1001 5.86662 10.6667 5.29995 10.6667 4.61662C10.6667 3.93328 10.1001 3.36662 9.41675 3.36662H7.83341L8.61675 1.99995C8.96675 1.39995 8.76675 0.633284 8.16675 0.283284C7.87631 0.121612 7.53417 0.0799218 7.21341 0.167119C6.89264 0.254317 6.61869 0.463488 6.45008 0.749951L5.66675 2.11662L4.88341 0.749951C4.7148 0.463488 4.44085 0.254317 4.12009 0.167119C3.79933 0.0799218 3.45718 0.121612 3.16675 0.283284C2.56675 0.633284 2.36675 1.39995 2.71675 1.99995L3.50008 3.36662H1.91675C1.23341 3.36662 0.666748 3.93328 0.666748 4.61662C0.666748 5.29995 1.23341 5.86662 1.91675 5.86662H3.50008L2.70008 7.24995C2.36675 7.84995 2.56675 8.61662 3.16675 8.94995ZM16.5001 8.94995C17.1001 9.29995 17.8667 9.08328 18.2167 8.48328L19.0001 7.11662L19.8001 8.49995C20.1501 9.09995 20.9167 9.29995 21.5167 8.96662C22.1167 8.61662 22.3167 7.86662 21.9834 7.26662L21.1834 5.88328H22.7667C23.4501 5.88328 24.0167 5.31662 24.0167 4.63328C24.0167 3.94995 23.4501 3.38328 22.7667 3.38328H21.1667L21.9501 2.01662C22.1149 1.72857 22.1601 1.38733 22.076 1.0663C21.9918 0.745274 21.785 0.470095 21.5001 0.299951C21.3589 0.217855 21.203 0.164372 21.0411 0.142557C20.8793 0.120741 20.7147 0.131022 20.5569 0.172809C20.399 0.214597 20.2509 0.287074 20.1211 0.386101C19.9912 0.485128 19.8821 0.608765 19.8001 0.749951L19.0001 2.11662L18.2167 0.749951C18.1353 0.608107 18.0266 0.483823 17.8968 0.384293C17.767 0.284763 17.6188 0.211965 17.4607 0.170114C17.3026 0.128262 17.1377 0.118188 16.9757 0.140475C16.8137 0.162762 16.6577 0.216966 16.5167 0.299951C15.9167 0.649951 15.7167 1.41662 16.0667 2.01662L16.8501 3.38328H15.2501C15.0867 3.38108 14.9245 3.41135 14.773 3.47234C14.6214 3.53333 14.4835 3.62383 14.3672 3.73857C14.2509 3.85332 14.1586 3.99003 14.0955 4.14076C14.0325 4.29149 14.0001 4.45324 14.0001 4.61662C14.0001 5.29995 14.5667 5.86662 15.2501 5.86662H16.8334L16.0334 7.24995C15.7001 7.84995 15.9001 8.61662 16.5001 8.94995V8.94995ZM37.3334 4.61662C37.3334 3.93328 36.7667 3.36662 36.0834 3.36662H34.5001L35.2834 1.99995C35.4482 1.7119 35.4935 1.37067 35.4093 1.04964C35.3251 0.728608 35.1184 0.453428 34.8334 0.283284C34.6922 0.201188 34.5363 0.147705 34.3745 0.12589C34.2126 0.104075 34.0481 0.114355 33.8902 0.156142C33.7323 0.19793 33.5842 0.270407 33.4544 0.369434C33.3245 0.468461 33.2155 0.592098 33.1334 0.733284L32.3334 2.11662L31.5501 0.749951C31.4687 0.608107 31.3599 0.483823 31.2301 0.384293C31.1003 0.284763 30.9521 0.211965 30.794 0.170114C30.6359 0.128262 30.4711 0.118188 30.309 0.140475C30.147 0.162762 29.991 0.216966 29.8501 0.299951C29.2501 0.649951 29.0501 1.41662 29.4001 2.01662L30.1834 3.38328H28.6001C28.4355 3.37952 28.2718 3.4086 28.1186 3.46883C27.9654 3.52906 27.8258 3.61923 27.7079 3.73406C27.5899 3.8489 27.4961 3.9861 27.4318 4.13764C27.3675 4.28917 27.334 4.45201 27.3334 4.61662C27.3334 5.29995 27.9001 5.86662 28.5834 5.86662H30.1667L29.3667 7.24995C29.284 7.39177 29.2304 7.54868 29.2091 7.7115C29.1877 7.87431 29.1992 8.03973 29.2426 8.19808C29.2861 8.35642 29.3607 8.50449 29.4622 8.6336C29.5636 8.76271 29.6898 8.87026 29.8334 8.94995C30.4334 9.29995 31.2001 9.08328 31.5501 8.48328L32.3334 7.11662L33.1334 8.49995C33.4834 9.09995 34.2501 9.29995 34.8501 8.96662C35.4501 8.61662 35.6501 7.86662 35.3167 7.26662L34.5167 5.88328H36.1001C36.7667 5.86662 37.3334 5.29995 37.3334 4.61662Z" fill="#FF6464"/>
</svg>
