<svg width="335" height="231" viewBox="0 0 335 231" fill="none" xmlns="http://www.w3.org/2000/svg">
<path d="M12.608 58.64C9.19467 58.64 6.592 57.68 4.8 55.76C3.008 53.7973 2.112 51.0027 2.112 47.376V23.824C2.112 20.1973 3.008 17.424 4.8 15.504C6.592 13.5413 9.19467 12.56 12.608 12.56C16.0213 12.56 18.624 13.5413 20.416 15.504C22.208 17.424 23.104 20.1973 23.104 23.824V27.664H16.448V23.376C16.448 20.432 15.232 18.96 12.8 18.96C10.368 18.96 9.152 20.432 9.152 23.376V47.888C9.152 50.7893 10.368 52.24 12.8 52.24C15.232 52.24 16.448 50.7893 16.448 47.888V39.12H12.928V32.72H23.104V47.376C23.104 51.0027 22.208 53.7973 20.416 55.76C18.624 57.68 16.0213 58.64 12.608 58.64ZM27.624 13.2H46.824V19.6H34.664V31.44H44.328V37.84H34.664V51.6H46.824V58H27.624V13.2ZM50.874 13.2H59.706L66.554 40.016H66.682V13.2H72.954V58H65.722L57.274 25.296H57.146V58H50.874V13.2ZM78.1865 13.2H97.3865V19.6H85.2265V31.44H94.8905V37.84H85.2265V51.6H97.3865V58H78.1865V13.2ZM101.437 13.2H111.869C115.495 13.2 118.141 14.0533 119.805 15.76C121.469 17.424 122.301 20.0053 122.301 23.504V26.256C122.301 30.9067 120.765 33.8507 117.693 35.088V35.216C119.399 35.728 120.594 36.7733 121.277 38.352C122.002 39.9307 122.365 42.0427 122.365 44.688V52.56C122.365 53.84 122.407 54.8853 122.493 55.696C122.578 56.464 122.791 57.232 123.133 58H115.965C115.709 57.2747 115.538 56.592 115.453 55.952C115.367 55.312 115.325 54.16 115.325 52.496V44.304C115.325 42.256 114.983 40.8267 114.301 40.016C113.661 39.2053 112.53 38.8 110.909 38.8H108.477V58H101.437V13.2ZM111.037 32.4C112.445 32.4 113.49 32.0373 114.173 31.312C114.898 30.5867 115.26 29.3707 115.26 27.664V24.208C115.26 22.5867 114.962 21.4133 114.365 20.688C113.81 19.9627 112.914 19.6 111.677 19.6H108.477V32.4H111.037ZM132.689 13.2H142.225L149.521 58H142.481L141.201 49.104V49.232H133.201L131.921 58H125.393L132.689 13.2ZM140.369 43.152L137.233 21.008H137.105L134.033 43.152H140.369ZM155.503 19.6H148.143V13.2H169.903V19.6H162.543V58H155.503V19.6ZM173.312 13.2H192.512V19.6H180.352V31.44H190.016V37.84H180.352V51.6H192.512V58H173.312V13.2ZM2.624 167.2H12.992C16.4907 167.2 19.1147 168.139 20.864 170.016C22.6133 171.893 23.488 174.645 23.488 178.272V182.688C23.488 186.315 22.6133 189.067 20.864 190.944C19.1147 192.821 16.4907 193.76 12.992 193.76H9.664V212H2.624V167.2ZM12.992 187.36C14.144 187.36 14.9973 187.04 15.552 186.4C16.1493 185.76 16.448 184.672 16.448 183.136V177.824C16.448 176.288 16.1493 175.2 15.552 174.56C14.9973 173.92 14.144 173.6 12.992 173.6H9.664V187.36H12.992ZM30.5015 167.2H40.0375L47.3335 212H40.2935L39.0135 203.104V203.232H31.0135L29.7335 212H23.2055L30.5015 167.2ZM38.1815 197.152L35.0455 175.008H34.9175L31.8455 197.152H38.1815ZM59.7135 212.64C56.3002 212.64 53.7188 211.68 51.9695 209.76C50.2202 207.797 49.3455 205.003 49.3455 201.376V198.816H56.0015V201.888C56.0015 204.789 57.2175 206.24 59.6495 206.24C60.8442 206.24 61.7402 205.899 62.3375 205.216C62.9775 204.491 63.2975 203.339 63.2975 201.76C63.2975 199.883 62.8708 198.24 62.0175 196.832C61.1642 195.381 59.5855 193.653 57.2815 191.648C54.3802 189.088 52.3535 186.784 51.2015 184.736C50.0495 182.645 49.4735 180.299 49.4735 177.696C49.4735 174.155 50.3695 171.424 52.1615 169.504C53.9535 167.541 56.5562 166.56 59.9695 166.56C63.3402 166.56 65.8788 167.541 67.5855 169.504C69.3348 171.424 70.2095 174.197 70.2095 177.824V179.68H63.5535V177.376C63.5535 175.84 63.2548 174.731 62.6575 174.048C62.0602 173.323 61.1855 172.96 60.0335 172.96C57.6868 172.96 56.5135 174.389 56.5135 177.248C56.5135 178.869 56.9402 180.384 57.7935 181.792C58.6895 183.2 60.2895 184.907 62.5935 186.912C65.5375 189.472 67.5642 191.797 68.6735 193.888C69.7828 195.979 70.3375 198.432 70.3375 201.248C70.3375 204.917 69.4202 207.733 67.5855 209.696C65.7935 211.659 63.1695 212.64 59.7135 212.64ZM83.526 212.64C80.1127 212.64 77.5313 211.68 75.782 209.76C74.0327 207.797 73.158 205.003 73.158 201.376V198.816H79.814V201.888C79.814 204.789 81.03 206.24 83.462 206.24C84.6567 206.24 85.5527 205.899 86.15 205.216C86.79 204.491 87.11 203.339 87.11 201.76C87.11 199.883 86.6833 198.24 85.83 196.832C84.9767 195.381 83.398 193.653 81.094 191.648C78.1927 189.088 76.166 186.784 75.014 184.736C73.862 182.645 73.286 180.299 73.286 177.696C73.286 174.155 74.182 171.424 75.974 169.504C77.766 167.541 80.3687 166.56 83.782 166.56C87.1527 166.56 89.6913 167.541 91.398 169.504C93.1473 171.424 94.022 174.197 94.022 177.824V179.68H87.366V177.376C87.366 175.84 87.0673 174.731 86.47 174.048C85.8727 173.323 84.998 172.96 83.846 172.96C81.4993 172.96 80.326 174.389 80.326 177.248C80.326 178.869 80.7527 180.384 81.606 181.792C82.502 183.2 84.102 184.907 86.406 186.912C89.35 189.472 91.3767 191.797 92.486 193.888C93.5953 195.979 94.15 198.432 94.15 201.248C94.15 204.917 93.2327 207.733 91.398 209.696C89.606 211.659 86.982 212.64 83.526 212.64ZM96.5225 167.2H103.307L106.443 201.632H106.571L109.899 167.2H117.579L120.907 201.632H121.035L124.171 167.2H130.251L125.707 212H116.939L113.739 181.792H113.611L110.411 212H101.067L96.5225 167.2ZM143.988 212.64C140.532 212.64 137.886 211.659 136.052 209.696C134.217 207.733 133.299 204.96 133.299 201.376V177.824C133.299 174.24 134.217 171.467 136.052 169.504C137.886 167.541 140.532 166.56 143.988 166.56C147.444 166.56 150.089 167.541 151.924 169.504C153.758 171.467 154.676 174.24 154.676 177.824V201.376C154.676 204.96 153.758 207.733 151.924 209.696C150.089 211.659 147.444 212.64 143.988 212.64ZM143.988 206.24C146.42 206.24 147.635 204.768 147.635 201.824V177.376C147.635 174.432 146.42 172.96 143.988 172.96C141.556 172.96 140.34 174.432 140.34 177.376V201.824C140.34 204.768 141.556 206.24 143.988 206.24ZM159.437 167.2H169.869C173.495 167.2 176.141 168.053 177.805 169.76C179.469 171.424 180.301 174.005 180.301 177.504V180.256C180.301 184.907 178.765 187.851 175.693 189.088V189.216C177.399 189.728 178.594 190.773 179.277 192.352C180.002 193.931 180.365 196.043 180.365 198.688V206.56C180.365 207.84 180.407 208.885 180.493 209.696C180.578 210.464 180.791 211.232 181.133 212H173.965C173.709 211.275 173.538 210.592 173.453 209.952C173.367 209.312 173.325 208.16 173.325 206.496V198.304C173.325 196.256 172.983 194.827 172.301 194.016C171.661 193.205 170.53 192.8 168.909 192.8H166.477V212H159.437V167.2ZM169.037 186.4C170.445 186.4 171.49 186.037 172.173 185.312C172.898 184.587 173.26 183.371 173.26 181.664V178.208C173.26 176.587 172.962 175.413 172.365 174.688C171.81 173.963 170.914 173.6 169.677 173.6H166.477V186.4H169.037ZM185.249 167.2H196.001C199.5 167.2 202.124 168.139 203.873 170.016C205.622 171.893 206.497 174.645 206.497 178.272V200.928C206.497 204.555 205.622 207.307 203.873 209.184C202.124 211.061 199.5 212 196.001 212H185.249V167.2ZM195.873 205.6C197.025 205.6 197.9 205.259 198.497 204.576C199.137 203.893 199.457 202.784 199.457 201.248V177.952C199.457 176.416 199.137 175.307 198.497 174.624C197.9 173.941 197.025 173.6 195.873 173.6H192.289V205.6H195.873ZM220.401 212.64C216.988 212.64 214.406 211.68 212.657 209.76C210.908 207.797 210.033 205.003 210.033 201.376V198.816H216.689V201.888C216.689 204.789 217.905 206.24 220.337 206.24C221.532 206.24 222.428 205.899 223.025 205.216C223.665 204.491 223.985 203.339 223.985 201.76C223.985 199.883 223.558 198.24 222.705 196.832C221.852 195.381 220.273 193.653 217.969 191.648C215.068 189.088 213.041 186.784 211.889 184.736C210.737 182.645 210.161 180.299 210.161 177.696C210.161 174.155 211.057 171.424 212.849 169.504C214.641 167.541 217.244 166.56 220.657 166.56C224.028 166.56 226.566 167.541 228.273 169.504C230.022 171.424 230.897 174.197 230.897 177.824V179.68H224.241V177.376C224.241 175.84 223.942 174.731 223.345 174.048C222.748 173.323 221.873 172.96 220.721 172.96C218.374 172.96 217.201 174.389 217.201 177.248C217.201 178.869 217.628 180.384 218.481 181.792C219.377 183.2 220.977 184.907 223.281 186.912C226.225 189.472 228.252 191.797 229.361 193.888C230.47 195.979 231.025 198.432 231.025 201.248C231.025 204.917 230.108 207.733 228.273 209.696C226.481 211.659 223.857 212.64 220.401 212.64ZM235.062 205.216H241.845V212H235.062V205.216Z" fill="#545974"/>
<path d="M11.776 135.64C8.36267 135.64 5.78133 134.68 4.032 132.76C2.28267 130.797 1.408 128.003 1.408 124.376V121.816H8.064V124.888C8.064 127.789 9.28 129.24 11.712 129.24C12.9067 129.24 13.8027 128.899 14.4 128.216C15.04 127.491 15.36 126.339 15.36 124.76C15.36 122.883 14.9333 121.24 14.08 119.832C13.2267 118.381 11.648 116.653 9.344 114.648C6.44267 112.088 4.416 109.784 3.264 107.736C2.112 105.645 1.536 103.299 1.536 100.696C1.536 97.1547 2.432 94.424 4.224 92.504C6.016 90.5413 8.61867 89.56 12.032 89.56C15.4027 89.56 17.9413 90.5413 19.648 92.504C21.3973 94.424 22.272 97.1973 22.272 100.824V102.68H15.616V100.376C15.616 98.84 15.3173 97.7307 14.72 97.048C14.1227 96.3227 13.248 95.96 12.096 95.96C9.74933 95.96 8.576 97.3893 8.576 100.248C8.576 101.869 9.00267 103.384 9.856 104.792C10.752 106.2 12.352 107.907 14.656 109.912C17.6 112.472 19.6267 114.797 20.736 116.888C21.8453 118.979 22.4 121.432 22.4 124.248C22.4 127.917 21.4827 130.733 19.648 132.696C17.856 134.659 15.232 135.64 11.776 135.64ZM26.4365 90.2H45.6365V96.6H33.4765V108.44H43.1405V114.84H33.4765V128.6H45.6365V135H26.4365V90.2ZM59.6065 135.64C56.2358 135.64 53.6545 134.68 51.8625 132.76C50.1132 130.84 49.2385 128.131 49.2385 124.632V100.568C49.2385 97.0693 50.1132 94.36 51.8625 92.44C53.6545 90.52 56.2358 89.56 59.6065 89.56C62.9772 89.56 65.5372 90.52 67.2865 92.44C69.0785 94.36 69.9745 97.0693 69.9745 100.568V105.304H63.3185V100.12C63.3185 97.3467 62.1452 95.96 59.7985 95.96C57.4518 95.96 56.2785 97.3467 56.2785 100.12V125.144C56.2785 127.875 57.4518 129.24 59.7985 129.24C62.1452 129.24 63.3185 127.875 63.3185 125.144V118.296H69.9745V124.632C69.9745 128.131 69.0785 130.84 67.2865 132.76C65.5372 134.68 62.9772 135.64 59.6065 135.64ZM84.4265 135.64C81.0132 135.64 78.4105 134.68 76.6185 132.76C74.8265 130.797 73.9305 128.003 73.9305 124.376V90.2H80.9705V124.888C80.9705 126.424 81.2692 127.533 81.8665 128.216C82.5065 128.899 83.4025 129.24 84.5545 129.24C85.7065 129.24 86.5812 128.899 87.1785 128.216C87.8185 127.533 88.1385 126.424 88.1385 124.888V90.2H94.9225V124.376C94.9225 128.003 94.0265 130.797 92.2345 132.76C90.4425 134.68 87.8398 135.64 84.4265 135.64ZM99.9365 90.2H110.369C113.995 90.2 116.641 91.0533 118.305 92.76C119.969 94.424 120.801 97.0053 120.801 100.504V103.256C120.801 107.907 119.265 110.851 116.193 112.088V112.216C117.899 112.728 119.094 113.773 119.777 115.352C120.502 116.931 120.865 119.043 120.865 121.688V129.56C120.865 130.84 120.907 131.885 120.993 132.696C121.078 133.464 121.291 134.232 121.633 135H114.465C114.209 134.275 114.038 133.592 113.953 132.952C113.867 132.312 113.825 131.16 113.825 129.496V121.304C113.825 119.256 113.483 117.827 112.801 117.016C112.161 116.205 111.03 115.8 109.409 115.8H106.977V135H99.9365V90.2ZM109.537 109.4C110.945 109.4 111.99 109.037 112.673 108.312C113.398 107.587 113.76 106.371 113.76 104.664V101.208C113.76 99.5867 113.462 98.4133 112.865 97.688C112.31 96.9627 111.414 96.6 110.177 96.6H106.977V109.4H109.537ZM125.749 90.2H144.949V96.6H132.789V108.44H142.453V114.84H132.789V128.6H144.949V135H125.749V90.2Z" fill="#FF6464"/>
</svg>
