<svg width="112" height="77" viewBox="0 0 112 77" fill="none" xmlns="http://www.w3.org/2000/svg">
<path d="M2.624 13.2H9.664V51.6H21.248V58H2.624V13.2ZM34.55 58.64C31.094 58.64 28.4487 57.6587 26.614 55.696C24.7793 53.7333 23.862 50.96 23.862 47.376V23.824C23.862 20.24 24.7793 17.4667 26.614 15.504C28.4487 13.5413 31.094 12.56 34.55 12.56C38.006 12.56 40.6513 13.5413 42.486 15.504C44.3207 17.4667 45.238 20.24 45.238 23.824V47.376C45.238 50.96 44.3207 53.7333 42.486 55.696C40.6513 57.6587 38.006 58.64 34.55 58.64ZM34.55 52.24C36.982 52.24 38.198 50.768 38.198 47.824V23.376C38.198 20.432 36.982 18.96 34.55 18.96C32.118 18.96 30.902 20.432 30.902 23.376V47.824C30.902 50.768 32.118 52.24 34.55 52.24ZM59.983 58.64C56.5697 58.64 53.967 57.68 52.175 55.76C50.383 53.7973 49.487 51.0027 49.487 47.376V23.824C49.487 20.1973 50.383 17.424 52.175 15.504C53.967 13.5413 56.5697 12.56 59.983 12.56C63.3963 12.56 65.999 13.5413 67.791 15.504C69.583 17.424 70.479 20.1973 70.479 23.824V27.664H63.823V23.376C63.823 20.432 62.607 18.96 60.175 18.96C57.743 18.96 56.527 20.432 56.527 23.376V47.888C56.527 50.7893 57.743 52.24 60.175 52.24C62.607 52.24 63.823 50.7893 63.823 47.888V39.12H60.303V32.72H70.479V47.376C70.479 51.0027 69.583 53.7973 67.791 55.76C65.999 57.68 63.3963 58.64 59.983 58.64ZM74.999 13.2H82.039V58H74.999V13.2ZM87.3115 13.2H96.1435L102.992 40.016H103.12V13.2H109.392V58H102.16L93.7115 25.296H93.5835V58H87.3115V13.2Z" fill="#545974"/>
</svg>
