<svg width="180" height="47" viewBox="0 0 180 47" fill="none" xmlns="http://www.w3.org/2000/svg">
<path d="M0.624 1.2H11.056C14.6827 1.2 17.328 2.05333 18.992 3.76C20.656 5.424 21.488 8.00533 21.488 11.504V14.256C21.488 18.9067 19.952 21.8507 16.88 23.088V23.216C18.5867 23.728 19.7813 24.7733 20.464 26.352C21.1893 27.9307 21.552 30.0427 21.552 32.688V40.56C21.552 41.84 21.5947 42.8853 21.68 43.696C21.7653 44.464 21.9787 45.232 22.32 46H15.152C14.896 45.2747 14.7253 44.592 14.64 43.952C14.5547 43.312 14.512 42.16 14.512 40.496V32.304C14.512 30.256 14.1707 28.8267 13.488 28.016C12.848 27.2053 11.7173 26.8 10.096 26.8H7.664V46H0.624V1.2ZM10.224 20.4C11.632 20.4 12.6773 20.0373 13.36 19.312C14.0853 18.5867 14.448 17.3707 14.448 15.664V12.208C14.448 10.5867 14.1493 9.41333 13.552 8.688C12.9973 7.96267 12.1013 7.6 10.864 7.6H7.664V20.4H10.224ZM26.4365 1.2H45.6365V7.6H33.4765V19.44H43.1405V25.84H33.4765V39.6H45.6365V46H26.4365V1.2ZM59.6705 46.64C56.2572 46.64 53.6545 45.68 51.8625 43.76C50.0705 41.7973 49.1745 39.0027 49.1745 35.376V11.824C49.1745 8.19733 50.0705 5.424 51.8625 3.504C53.6545 1.54133 56.2572 0.559998 59.6705 0.559998C63.0838 0.559998 65.6865 1.54133 67.4785 3.504C69.2705 5.424 70.1665 8.19733 70.1665 11.824V15.664H63.5105V11.376C63.5105 8.432 62.2945 6.96 59.8625 6.96C57.4305 6.96 56.2145 8.432 56.2145 11.376V35.888C56.2145 38.7893 57.4305 40.24 59.8625 40.24C62.2945 40.24 63.5105 38.7893 63.5105 35.888V27.12H59.9905V20.72H70.1665V35.376C70.1665 39.0027 69.2705 41.7973 67.4785 43.76C65.6865 45.68 63.0838 46.64 59.6705 46.64ZM74.6865 1.2H81.7265V46H74.6865V1.2ZM96.151 46.64C92.7377 46.64 90.1563 45.68 88.407 43.76C86.6577 41.7973 85.783 39.0027 85.783 35.376V32.816H92.439V35.888C92.439 38.7893 93.655 40.24 96.087 40.24C97.2817 40.24 98.1777 39.8987 98.775 39.216C99.415 38.4907 99.735 37.3387 99.735 35.76C99.735 33.8827 99.3083 32.24 98.455 30.832C97.6017 29.3813 96.023 27.6533 93.719 25.648C90.8177 23.088 88.791 20.784 87.639 18.736C86.487 16.6453 85.911 14.2987 85.911 11.696C85.911 8.15467 86.807 5.424 88.599 3.504C90.391 1.54133 92.9937 0.559998 96.407 0.559998C99.7777 0.559998 102.316 1.54133 104.023 3.504C105.772 5.424 106.647 8.19733 106.647 11.824V13.68H99.991V11.376C99.991 9.84 99.6923 8.73066 99.095 8.048C98.4977 7.32266 97.623 6.96 96.471 6.96C94.1243 6.96 92.951 8.38933 92.951 11.248C92.951 12.8693 93.3777 14.384 94.231 15.792C95.127 17.2 96.727 18.9067 99.031 20.912C101.975 23.472 104.002 25.7973 105.111 27.888C106.22 29.9787 106.775 32.432 106.775 35.248C106.775 38.9173 105.858 41.7333 104.023 43.696C102.231 45.6587 99.607 46.64 96.151 46.64ZM116.316 7.6H108.956V1.2H130.716V7.6H123.356V46H116.316V7.6ZM134.124 1.2H153.324V7.6H141.164V19.44H150.828V25.84H141.164V39.6H153.324V46H134.124V1.2ZM157.374 1.2H167.806C171.433 1.2 174.078 2.05333 175.742 3.76C177.406 5.424 178.238 8.00533 178.238 11.504V14.256C178.238 18.9067 176.702 21.8507 173.63 23.088V23.216C175.337 23.728 176.531 24.7733 177.214 26.352C177.939 27.9307 178.302 30.0427 178.302 32.688V40.56C178.302 41.84 178.345 42.8853 178.43 43.696C178.515 44.464 178.729 45.232 179.07 46H171.902C171.646 45.2747 171.475 44.592 171.39 43.952C171.305 43.312 171.262 42.16 171.262 40.496V32.304C171.262 30.256 170.921 28.8267 170.238 28.016C169.598 27.2053 168.467 26.8 166.846 26.8H164.414V46H157.374V1.2ZM166.974 20.4C168.382 20.4 169.427 20.0373 170.11 19.312C170.835 18.5867 171.198 17.3707 171.198 15.664V12.208C171.198 10.5867 170.899 9.41333 170.302 8.688C169.747 7.96267 168.851 7.6 167.614 7.6H164.414V20.4H166.974Z" fill="#545974"/>
</svg>
