<svg width="77" height="29" viewBox="0 0 77 29" fill="none" xmlns="http://www.w3.org/2000/svg">
<path d="M3.048 7.6H0.288V5.2H8.448V7.6H5.688V22H3.048V7.6ZM9.72619 5.2H13.6382C14.9982 5.2 15.9902 5.52 16.6142 6.16C17.2382 6.784 17.5502 7.752 17.5502 9.064V10.096C17.5502 11.84 16.9742 12.944 15.8222 13.408V13.456C16.4622 13.648 16.9102 14.04 17.1662 14.632C17.4382 15.224 17.5742 16.016 17.5742 17.008V19.96C17.5742 20.44 17.5902 20.832 17.6222 21.136C17.6542 21.424 17.7342 21.712 17.8622 22H15.1742C15.0782 21.728 15.0142 21.472 14.9822 21.232C14.9502 20.992 14.9342 20.56 14.9342 19.936V16.864C14.9342 16.096 14.8062 15.56 14.5502 15.256C14.3102 14.952 13.8862 14.8 13.2782 14.8H12.3662V22H9.72619V5.2ZM13.3262 12.4C13.8542 12.4 14.2462 12.264 14.5022 11.992C14.7742 11.72 14.9102 11.264 14.9102 10.624V9.328C14.9102 8.72 14.7982 8.28 14.5742 8.008C14.3662 7.736 14.0302 7.6 13.5662 7.6H12.3662V12.4H13.3262ZM23.2459 22.24C21.9659 22.24 20.9899 21.88 20.3179 21.16C19.6459 20.424 19.3099 19.376 19.3099 18.016V5.2H21.9499V18.208C21.9499 18.784 22.0619 19.2 22.2859 19.456C22.5259 19.712 22.8619 19.84 23.2939 19.84C23.7259 19.84 24.0539 19.712 24.2779 19.456C24.5179 19.2 24.6379 18.784 24.6379 18.208V5.2H27.1819V18.016C27.1819 19.376 26.8459 20.424 26.1739 21.16C25.5019 21.88 24.5259 22.24 23.2459 22.24ZM29.0621 5.2H36.2621V7.6H31.7021V12.04H35.3261V14.44H31.7021V19.6H36.2621V22H29.0621V5.2Z" fill="#FF6464"/>
<path d="M41.6246 5.2H45.5126C46.8246 5.2 47.8086 5.552 48.4646 6.256C49.1206 6.96 49.4486 7.992 49.4486 9.352V11.008C49.4486 12.368 49.1206 13.4 48.4646 14.104C47.8086 14.808 46.8246 15.16 45.5126 15.16H44.2646V22H41.6246V5.2ZM45.5126 12.76C45.9446 12.76 46.2646 12.64 46.4726 12.4C46.6966 12.16 46.8086 11.752 46.8086 11.176V9.184C46.8086 8.608 46.6966 8.2 46.4726 7.96C46.2646 7.72 45.9446 7.6 45.5126 7.6H44.2646V12.76H45.5126ZM52.0787 5.2H55.6547L58.3907 22H55.7507L55.2707 18.664V18.712H52.2707L51.7907 22H49.3427L52.0787 5.2ZM54.9587 16.432L53.7827 8.128H53.7347L52.5827 16.432H54.9587ZM63.0332 22.24C61.7532 22.24 60.7852 21.88 60.1292 21.16C59.4732 20.424 59.1452 19.376 59.1452 18.016V17.056H61.6412V18.208C61.6412 19.296 62.0972 19.84 63.0092 19.84C63.4572 19.84 63.7932 19.712 64.0172 19.456C64.2572 19.184 64.3772 18.752 64.3772 18.16C64.3772 17.456 64.2172 16.84 63.8972 16.312C63.5772 15.768 62.9852 15.12 62.1212 14.368C61.0332 13.408 60.2732 12.544 59.8412 11.776C59.4092 10.992 59.1932 10.112 59.1932 9.136C59.1932 7.808 59.5292 6.784 60.2012 6.064C60.8732 5.328 61.8492 4.96 63.1292 4.96C64.3932 4.96 65.3452 5.328 65.9852 6.064C66.6412 6.784 66.9692 7.824 66.9692 9.184V9.88H64.4732V9.016C64.4732 8.44 64.3612 8.024 64.1372 7.768C63.9132 7.496 63.5852 7.36 63.1532 7.36C62.2732 7.36 61.8332 7.896 61.8332 8.968C61.8332 9.576 61.9932 10.144 62.3132 10.672C62.6492 11.2 63.2492 11.84 64.1132 12.592C65.2172 13.552 65.9772 14.424 66.3932 15.208C66.8092 15.992 67.0172 16.912 67.0172 17.968C67.0172 19.344 66.6732 20.4 65.9852 21.136C65.3132 21.872 64.3292 22.24 63.0332 22.24ZM71.9629 22.24C70.6829 22.24 69.7149 21.88 69.0589 21.16C68.4029 20.424 68.0749 19.376 68.0749 18.016V17.056H70.5709V18.208C70.5709 19.296 71.0269 19.84 71.9389 19.84C72.3869 19.84 72.7229 19.712 72.9469 19.456C73.1869 19.184 73.3069 18.752 73.3069 18.16C73.3069 17.456 73.1469 16.84 72.8269 16.312C72.5069 15.768 71.9149 15.12 71.0509 14.368C69.9629 13.408 69.2029 12.544 68.7709 11.776C68.3389 10.992 68.1229 10.112 68.1229 9.136C68.1229 7.808 68.4589 6.784 69.1309 6.064C69.8029 5.328 70.7789 4.96 72.0589 4.96C73.3229 4.96 74.2749 5.328 74.9149 6.064C75.5709 6.784 75.8989 7.824 75.8989 9.184V9.88H73.4029V9.016C73.4029 8.44 73.2909 8.024 73.0669 7.768C72.8429 7.496 72.5149 7.36 72.0829 7.36C71.2029 7.36 70.7629 7.896 70.7629 8.968C70.7629 9.576 70.9229 10.144 71.2429 10.672C71.5789 11.2 72.1789 11.84 73.0429 12.592C74.1469 13.552 74.9069 14.424 75.3229 15.208C75.7389 15.992 75.9469 16.912 75.9469 17.968C75.9469 19.344 75.6029 20.4 74.9149 21.136C74.2429 21.872 73.2589 22.24 71.9629 22.24Z" fill="#545974"/>
</svg>
